<?xml version="1.0" encoding="UTF-8"?>
<svg id="Layer_1" xmlns="http://www.w3.org/2000/svg" version="1.1" viewBox="0 0 300 108">
  <!-- Generator: Adobe Illustrator 29.6.1, SVG Export Plug-In . SVG Version: 2.1.1 Build 9)  -->
  <defs>
    <style>
      .st0 {
        fill: none;
        stroke: #fff;
        stroke-miterlimit: 3.86;
        stroke-width: .83px;
      }

      .st1 {
        fill: #fff;
      }
    </style>
  </defs>
  <g>
    <path class="st1" d="M161.3,30.42c.34,0,.57,0,.71.02.14.02.35.05.62.11l.81.07c.1,0,.21-.02.34-.07l.49-.13c.09,0,.14.05.15.13l-.12.61c-.03.21-.04.41-.04.59l.04.69.04.62s-.02.06-.05.11c-.03.05-.09.12-.17.21-.08.09-.15.14-.21.16-.07,0-.13-.09-.17-.28-.02-.19-.08-.41-.16-.67-.08-.26-.3-.5-.67-.73-.37-.23-.88-.34-1.53-.34-.51,0-.89.11-1.15.33-.27.22-.4.51-.4.88,0,.59.62,1.09,1.87,1.5,1.25.41,2.09.73,2.55.96.45.24.68.86.68,1.88,0,.96-.44,1.74-1.3,2.33-.87.59-1.81.88-2.83.88-.25,0-.43,0-.55-.02-.12-.01-.31-.04-.58-.09l-.8-.1c-.19,0-.33.01-.43.04-.1.03-.18.05-.23.07-.05,0-.14.04-.26.1-.07,0-.11-.06-.12-.17v-.59l.05-.59c0-.12,0-.26-.01-.4,0-.14-.03-.29-.05-.43-.03-.33-.06-.56-.09-.7,0-.1.05-.22.16-.38.11-.14.2-.21.27-.21.04,0,.08.04.12.11.04.08.08.29.13.65.05.36.33.72.84,1.06.5.35,1.13.52,1.88.52.53,0,.96-.15,1.3-.45.34-.31.5-.72.5-1.24,0-.55-.42-.96-1.27-1.25l-2.49-.78c-.88-.46-1.33-1.17-1.33-2.13,0-.79.37-1.47,1.1-2.04.73-.57,1.52-.86,2.35-.86Z"/>
    <path class="st1" d="M168.13,36.23l-.44,1.25c-.2.58-.3,1.07-.3,1.45,0,.18.09.34.28.48.21.11.43.17.66.17.12,0,.18.06.19.17,0,.02-.02.04-.03.06,0,.02-.03.05-.05.07l-.19.17c-.05.05-.13.09-.24.11l-1.39-.08-.76.04-.79.04c-.12,0-.18-.05-.19-.13,0-.03.02-.06.04-.09.02-.04.05-.1.12-.18.06-.08.19-.17.4-.25.2-.08.41-.38.64-.89l1.14-2.69,1.25-3.09c.29-.76.44-1.2.44-1.32,0-.07-.02-.14-.04-.21l-.04-.14s.01-.04.01-.05c0,0,.03-.05.07-.12.05-.07.1-.11.17-.12.1,0,.19,0,.29-.03.1-.02.25-.07.46-.15.21-.08.39-.17.54-.3l.43-.36c.09,0,.16.07.21.2.05.13.08.33.08.6,0,.13.24.82.73,2.06l1.58,3.78c.56,1.28.93,2.04,1.1,2.29.17.24.33.4.46.49.11.05.23.09.39.13.13.02.2.07.2.15,0,.04-.05.13-.15.25-.1.12-.19.19-.27.2l-2.27-.08-1.62.08c-.08,0-.12-.05-.13-.13,0-.02.02-.05.04-.08.02-.04.06-.1.13-.2.07-.1.17-.17.29-.23.12-.05.23-.15.32-.29.09-.14.13-.29.13-.45,0-.25-.12-.68-.36-1.31l-.44-1.24h-3.1ZM168.52,35.28h2.35l-1.17-2.92-1.18,2.92Z"/>
    <path class="st1" d="M177.5,37.39c0,.87.07,1.45.22,1.75.15.3.46.44.92.44.28,0,.43.05.45.16-.02.02-.04.06-.07.1-.03.05-.07.11-.14.19-.07.08-.14.12-.21.13l-1.58-.08-.73.04-.69.04c-.11,0-.17-.04-.19-.12,0-.02.02-.04.03-.09.01-.04.06-.11.15-.21.08-.1.18-.16.3-.17.12,0,.23-.15.34-.42.11-.27.17-.7.17-1.29v-4.88c0-.71-.06-1.19-.2-1.45-.13-.26-.39-.39-.77-.39-.13,0-.2-.04-.2-.13,0-.07.06-.16.19-.28.13-.12.26-.17.4-.17l.53.04.46.04h.62c.13-.01.32-.04.57-.08.09,0,.19.08.32.24l.73,1.22,3.73,5.62.03-4.67c0-.71-.1-1.2-.29-1.45-.19-.25-.53-.38-1.02-.38-.19,0-.28-.05-.28-.16.02-.03.04-.06.07-.11.03-.05.08-.1.15-.18.07-.08.16-.12.24-.14l.49.04.86.04h.72s.73-.08.73-.08c.13,0,.2.05.21.13-.01.03-.02.06-.03.09,0,.03-.04.09-.1.19-.06.1-.15.18-.29.25-.13.07-.24.26-.32.58-.08.31-.12,1-.12,2.07v2.81l.05,2.12c0,.2-.11.38-.32.53l-.42.28s-.08.08-.15.16c-.07.08-.17.18-.28.31-.11.12-.23.19-.37.21-.1,0-.3-.22-.58-.67l-.64-1.02-3.69-5.45-.03,4.23Z"/>
    <path class="st1" d="M196.48,31.83l.17-.76c.07-.35.21-.52.41-.52l.46.05.78.03,1.33-.08c.11,0,.17.05.19.16,0,.02-.02.05-.03.07-.01.02-.04.06-.08.12l-.21.25c-.16.04-.29.13-.4.26-.11.13-.17.32-.17.56,0,.16.08.84.24,2.03l.33,2.55.09,1.29c0,.67.09,1.12.28,1.33.19.22.41.35.68.4.23.03.35.08.37.16-.04.06-.07.11-.11.14-.03.03-.07.09-.1.16-.04.08-.14.12-.32.12l-.91-.04-.73-.04-1.99.08c-.13,0-.2-.06-.2-.16.03-.07.05-.12.07-.15l.17-.23c.21-.04.4-.15.56-.33.16-.17.24-.41.24-.72,0-.28-.08-1.14-.24-2.58-.16-1.45-.24-2.48-.24-3.08l-1.67,4.91c-.03.07-.07.24-.12.5-.05.18-.1.38-.14.61-.04.23-.15.4-.34.52-.19.11-.4.28-.62.5-.22.22-.36.33-.4.33-.11,0-.24-.24-.4-.72l-.76-2.34-1.47-4.3-.35,3.06-.18,2.55c0,.33.09.59.28.77.19.18.4.27.65.27.18,0,.3.01.35.03.05.02.08.06.1.13-.02.02-.04.06-.07.1-.02.05-.08.11-.15.19-.08.08-.13.12-.18.13l-1.47-.08-1.41.08c-.1,0-.15-.04-.17-.12.01-.03.02-.05.03-.09,0-.03.04-.09.1-.19.06-.1.16-.17.32-.23.16-.06.3-.26.42-.6.11-.34.28-1.54.52-3.61l.35-3.45c0-.24-.05-.41-.16-.5-.11-.09-.27-.16-.5-.19-.23-.04-.34-.08-.35-.15,0-.08.06-.17.18-.29.12-.11.22-.17.29-.19l.57.05.76.03.68-.04.49-.04c.12,0,.2.1.26.29l.19.69,1.88,5.68,1.86-5.39Z"/>
    <path class="st1" d="M203.56,36.23l-.44,1.25c-.21.58-.31,1.07-.31,1.45,0,.18.1.34.29.48.21.11.43.17.66.17.12,0,.18.06.19.17,0,.02-.02.04-.02.06,0,.02-.03.05-.06.07l-.19.17c-.05.05-.13.09-.24.11l-1.39-.08-.76.04-.79.04c-.11,0-.18-.05-.18-.13,0-.03.02-.06.04-.09.02-.04.06-.1.12-.18.06-.08.19-.17.4-.25.2-.08.42-.38.64-.89l1.14-2.69,1.25-3.09c.29-.76.44-1.2.44-1.32,0-.07-.01-.14-.04-.21l-.04-.14s.02-.04.02-.05c0,0,.02-.05.07-.12.05-.07.1-.11.17-.12.1,0,.19,0,.29-.03.1-.02.25-.07.46-.15.21-.08.39-.17.54-.3l.42-.36c.09,0,.16.07.21.2.05.13.08.33.08.6,0,.13.24.82.73,2.06l1.58,3.78c.56,1.28.92,2.04,1.1,2.29.18.24.33.4.47.49.1.05.23.09.38.13.13.02.2.07.2.15,0,.04-.05.13-.15.25-.1.12-.19.19-.27.2l-2.27-.08-1.62.08c-.08,0-.12-.05-.13-.13,0-.02.02-.05.04-.08.02-.04.06-.1.13-.2.07-.1.17-.17.29-.23.13-.05.23-.15.32-.29.09-.14.13-.29.13-.45,0-.25-.12-.68-.36-1.31l-.44-1.24h-3.1ZM203.95,35.28h2.35l-1.17-2.92-1.18,2.92Z"/>
    <path class="st1" d="M212.38,31.59c-.53,0-.93.1-1.19.31-.26.21-.41.43-.44.68-.03.25-.06.4-.09.46-.03.06-.08.13-.17.23l-.19.17s-.08.03-.13.05c-.06,0-.09-.08-.09-.25l.04-.58.04-1.02-.04-.68-.04-.48s.04-.06.05-.09c.02-.03.07-.08.15-.15.08-.07.15-.11.21-.13.1.12.26.24.5.35.24.11.53.17.89.17h4.29c.42,0,.8-.06,1.14-.17l.76-.35c.11,0,.17.05.18.16l-.05.61-.03.55.08,1.54c0,.06-.05.16-.16.29-.11.13-.2.19-.26.19-.05,0-.1-.04-.14-.12l-.08-.64c0-.16-.03-.3-.1-.43-.07-.13-.19-.27-.37-.43-.18-.16-.53-.24-1.05-.24h-.92v6.9c0,.33.07.59.22.79.14.2.4.3.78.3.24,0,.36.04.36.12,0,.06-.05.14-.13.22l-.16.17-.07.08-1.98-.08-1.95.08c-.1,0-.14-.04-.14-.11,0-.04.04-.13.11-.26.08-.13.17-.2.29-.22.11-.02.26-.14.43-.36.17-.22.26-.47.26-.72v-6.9h-.8Z"/>
    <path class="st1" d="M220.23,32.15c0-.38-.08-.65-.24-.81-.16-.16-.35-.25-.58-.27-.22-.03-.35-.07-.37-.12,0-.07.06-.16.17-.28.11-.12.2-.18.26-.2l1.79.17,5.17-.21c.08,0,.14.03.17.1l.08.78c.03.24.07.5.13.77l.09.61c0,.06-.05.15-.15.27-.1.12-.18.19-.24.19-.02-.02-.05-.05-.06-.09-.02-.03-.06-.12-.12-.27-.08-.25-.21-.46-.37-.64-.17-.18-.42-.32-.76-.42-.34-.1-.82-.15-1.45-.15h-1.55v2.34l1.5.08c.56,0,.97-.06,1.21-.17l.6-.32c.08,0,.12.06.14.19l-.04.41-.04.44c0,.23.01.48.04.73l.04.37c0,.12-.02.21-.07.28l-.12.12-.12.15c-.05.05-.1.09-.17.11-.05,0-.09-.02-.12-.07l-.08-.47c-.03-.27-.14-.47-.33-.61-.19-.14-.55-.21-1.06-.21l-1.37.05v3.28c0,.3.15.52.46.65.33.13.9.19,1.71.19.75,0,1.27-.13,1.56-.39.29-.26.47-.52.54-.79.07-.27.14-.42.18-.45l.15-.05c.06-.03.11-.05.15-.08.04-.02.09-.04.17-.06.08,0,.12.06.12.18l-.22,1.12c-.04.2-.06.38-.08.54-.02.16-.02.33-.02.5,0,.13-.04.25-.11.35-.07.1-.18.15-.32.16l-3.92-.08-3.05.08c-.17,0-.25-.04-.25-.12,0-.07.03-.16.1-.26.07-.1.16-.18.29-.22.12-.03.24-.14.37-.34.13-.2.2-.45.2-.74v-6.32Z"/>
    <path class="st1" d="M231.92,40.29c-1.16,0-2.11-.42-2.86-1.27-.75-.85-1.12-1.93-1.12-3.25,0-1.48.52-2.74,1.56-3.79,1.04-1.05,2.19-1.57,3.44-1.57,1.14,0,2.09.42,2.85,1.27.76.85,1.13,1.93,1.13,3.23,0,1.49-.52,2.75-1.56,3.79-1.04,1.04-2.19,1.57-3.44,1.57ZM232.42,31.7c-.73,0-1.26.22-1.62.66-.35.44-.59.87-.7,1.29-.11.42-.17.93-.17,1.53,0,1.21.24,2.16.72,2.83.48.68,1.08,1.01,1.79,1.01s1.33-.29,1.79-.88c.46-.58.69-1.45.69-2.6,0-1.22-.24-2.17-.73-2.84-.49-.67-1.08-1.01-1.78-1.01Z"/>
    <path class="st1" d="M245.56,30.42c.41,0,.7.02.86.05.16.03.28.05.37.06.08.02.23.05.43.1.12,0,.23-.02.32-.05.09-.03.16-.06.22-.07.05-.01.14-.05.26-.1.11,0,.16.08.16.25l-.05.58-.03.76c0,.25.01.49.04.73l.04.48c-.03.05-.05.09-.06.11l-.19.14c-.07.05-.13.09-.19.11-.08,0-.16-.19-.24-.57-.06-.36-.25-.7-.55-1.01-.31-.31-.83-.46-1.56-.46s-1.26.27-1.64.8c-.38.54-.56,1.39-.56,2.57,0,1.34.24,2.34.72,2.98.48.65,1.11.97,1.91.97.5,0,.99-.15,1.46-.45l1.22-.98c.13,0,.19.05.19.15,0,.06-.02.14-.05.24l-.07.25c0,.1-.01.18-.03.26-.02.07-.3.31-.85.7-.55.39-1.04.7-1.49.93-.44.23-.89.35-1.35.35-1.03,0-1.89-.43-2.59-1.28-.7-.85-1.06-2.02-1.06-3.5,0-1.28.44-2.45,1.3-3.51.87-1.05,1.89-1.58,3.06-1.58Z"/>
    <path class="st1" d="M253.24,40.29c-1.16,0-2.12-.42-2.86-1.27-.75-.85-1.12-1.93-1.12-3.25,0-1.48.52-2.74,1.56-3.79,1.04-1.05,2.18-1.57,3.44-1.57,1.14,0,2.09.42,2.84,1.27.76.85,1.13,1.93,1.13,3.23,0,1.49-.52,2.75-1.56,3.79-1.04,1.04-2.19,1.57-3.44,1.57ZM253.74,31.7c-.73,0-1.27.22-1.62.66-.35.44-.59.87-.7,1.29-.11.42-.17.93-.17,1.53,0,1.21.24,2.16.72,2.83.48.68,1.08,1.01,1.79,1.01s1.33-.29,1.8-.88c.46-.58.7-1.45.7-2.6,0-1.22-.25-2.17-.73-2.84-.49-.67-1.08-1.01-1.78-1.01Z"/>
    <path class="st1" d="M261.82,36.63c0,.71.2,1.28.6,1.72.4.44.95.66,1.64.66.76,0,1.36-.23,1.8-.69.44-.46.66-1.16.66-2.08v-3.16c0-.73-.08-1.22-.25-1.46-.16-.24-.41-.39-.74-.44-.33-.05-.5-.1-.5-.15,0-.06.06-.15.19-.27l.16-.17s.07-.04.12-.04l1.76.08h.57c.09-.02.15-.03.18-.03.12,0,.25-.02.41-.05.17,0,.25.06.25.17,0,.06-.04.14-.13.24-.09.1-.21.17-.37.23-.16.06-.3.21-.43.48-.13.26-.19.71-.19,1.35v3.4c0,1.19-.33,2.13-1.01,2.83-.67.7-1.73,1.05-3.18,1.05-.95,0-1.77-.27-2.47-.8-.71-.53-1.06-1.23-1.06-2.1v-4.64c0-.52-.07-.91-.2-1.17-.13-.25-.34-.4-.63-.43-.29-.03-.43-.09-.43-.18,0-.04.05-.12.16-.24.11-.11.2-.18.29-.19l.68.05.69.03,2.29-.08c.17,0,.27.05.29.16,0,.02-.02.04-.04.08-.02.04-.06.1-.13.19-.06.09-.2.17-.39.24-.19.07-.34.2-.44.4-.1.19-.15.54-.15,1.05v3.96Z"/>
    <path class="st1" d="M271.1,37.39c0,.87.07,1.45.23,1.75.15.3.45.44.92.44.28,0,.43.05.45.16-.02.02-.04.06-.07.1-.02.05-.07.11-.14.19-.07.08-.14.12-.21.13l-1.57-.08-.73.04-.69.04c-.1,0-.17-.04-.18-.12,0-.02.02-.04.03-.09.02-.04.06-.11.15-.21.08-.1.18-.16.3-.17.11,0,.23-.15.34-.42.11-.27.17-.7.17-1.29v-4.88c0-.71-.07-1.19-.2-1.45-.13-.26-.39-.39-.77-.39-.13,0-.2-.04-.2-.13,0-.07.06-.16.19-.28.13-.12.26-.17.4-.17l.53.04.46.04h.62c.13-.01.33-.04.57-.08.09,0,.19.08.32.24l.73,1.22,3.73,5.62.03-4.67c0-.71-.1-1.2-.29-1.45-.2-.25-.54-.38-1.02-.38-.18,0-.28-.05-.28-.16.02-.03.04-.06.07-.11.03-.05.08-.1.16-.18.07-.08.15-.12.24-.14l.49.04.86.04h.72s.73-.08.73-.08c.13,0,.2.05.21.13,0,.03-.02.06-.03.09,0,.03-.04.09-.1.19-.06.1-.15.18-.29.25-.13.07-.24.26-.32.58-.08.31-.12,1-.12,2.07v2.81l.05,2.12c0,.2-.11.38-.32.53l-.43.28s-.08.08-.15.16c-.07.08-.17.18-.28.31-.11.12-.24.19-.37.21-.11,0-.3-.22-.58-.67l-.64-1.02-3.69-5.45-.03,4.23Z"/>
    <path class="st1" d="M281.22,31.59c-.53,0-.93.1-1.19.31-.26.21-.41.43-.44.68-.03.25-.06.4-.09.46-.03.06-.08.13-.17.23l-.18.17s-.08.03-.13.05c-.06,0-.09-.08-.09-.25l.04-.58.04-1.02-.04-.68-.04-.48s.04-.06.05-.09c.02-.03.06-.08.15-.15.08-.07.15-.11.21-.13.1.12.26.24.5.35.24.11.53.17.89.17h4.29c.42,0,.8-.06,1.14-.17l.76-.35c.1,0,.16.05.19.16l-.05.61-.03.55.08,1.54c0,.06-.06.16-.17.29-.11.13-.2.19-.26.19-.05,0-.1-.04-.14-.12l-.08-.64c0-.16-.03-.3-.1-.43-.07-.13-.19-.27-.37-.43-.18-.16-.53-.24-1.05-.24h-.92v6.9c0,.33.07.59.22.79.15.2.4.3.77.3.24,0,.36.04.36.12,0,.06-.05.14-.14.22l-.16.17-.07.08-1.97-.08-1.95.08c-.1,0-.15-.04-.15-.11,0-.04.04-.13.11-.26.07-.13.17-.2.29-.22.12-.02.26-.14.43-.36.17-.22.26-.47.26-.72v-6.9h-.8Z"/>
    <path class="st1" d="M293.13,38.52c0,.37.07.64.22.81.15.17.35.25.63.25s.42.06.42.17c0,.06-.05.15-.14.25-.1.1-.19.16-.28.16l-.89-.04-.74-.04-2.06.08c-.12,0-.18-.05-.18-.15,0-.05.03-.13.1-.22.07-.1.2-.19.39-.28.2-.09.33-.25.42-.5.08-.25.13-.88.13-1.9,0-.26-.05-.5-.13-.72-.09-.23-.4-.81-.93-1.77-.53-.96-.91-1.63-1.15-2.02-.23-.39-.45-.72-.66-1-.2-.28-.45-.44-.76-.47-.17,0-.25-.04-.25-.13,0-.07.06-.16.18-.26.12-.1.23-.17.34-.19l1.82.08,1.96-.08c.16,0,.24.07.24.2,0,.03-.02.05-.03.07-.01.02-.04.05-.08.1-.04.05-.07.09-.09.11-.02.03-.04.07-.06.11l-.46.17c-.17.05-.25.21-.25.46,0,.19.12.53.36,1.02l1.34,2.53,1.44-2.61c.2-.38.31-.69.31-.92,0-.22-.06-.39-.19-.5-.12-.11-.35-.17-.67-.17-.16,0-.24-.03-.24-.09,0-.07.06-.17.19-.28.12-.12.22-.19.29-.21l.62.08h.69l1.58-.08c.05,0,.11.01.17.05.06.03.09.07.1.11,0,.04-.04.12-.11.22-.07.1-.21.19-.42.28-.2.08-.39.24-.58.47-.18.23-.55.84-1.1,1.82l-1.15,2.05c-.21.38-.31.71-.31.99v1.96Z"/>
    <path class="st1" d="M163.92,45.92c.69,0,1.17.03,1.44.08.26.05.47.09.61.11.14.02.38.08.72.17.21,0,.39-.02.53-.08.15-.05.26-.09.35-.11.09-.02.24-.08.44-.17.18,0,.27.14.27.42l-.09.97-.04,1.26c0,.41.02.82.07,1.22l.07.8c-.05.09-.08.15-.11.18l-.31.24c-.12.09-.22.15-.31.18-.13,0-.26-.32-.4-.95-.1-.6-.41-1.17-.92-1.68-.51-.52-1.38-.78-2.6-.78s-2.11.45-2.74,1.34c-.63.89-.94,2.32-.94,4.28,0,2.24.4,3.9,1.2,4.98.79,1.08,1.86,1.61,3.19,1.61.84,0,1.65-.25,2.44-.75l2.04-1.64c.21,0,.31.08.31.24,0,.1-.03.24-.09.4l-.11.42c0,.16-.02.3-.06.43-.04.13-.51.51-1.41,1.16-.91.65-1.74,1.17-2.48,1.55-.74.38-1.5.58-2.25.58-1.71,0-3.15-.71-4.33-2.13-1.17-1.43-1.76-3.37-1.76-5.83,0-2.14.72-4.09,2.17-5.85,1.45-1.76,3.15-2.64,5.11-2.64Z"/>
    <path class="st1" d="M176.63,62.39c-1.93,0-3.52-.7-4.77-2.11-1.25-1.41-1.87-3.21-1.87-5.41,0-2.47.87-4.57,2.6-6.32,1.74-1.75,3.65-2.62,5.74-2.62,1.9,0,3.49.71,4.75,2.12,1.26,1.42,1.89,3.22,1.89,5.4,0,2.48-.87,4.59-2.6,6.33-1.73,1.74-3.65,2.61-5.75,2.61ZM177.47,48.04c-1.21,0-2.11.37-2.7,1.09-.59.73-.98,1.45-1.17,2.16-.19.71-.29,1.56-.29,2.55,0,2.02.4,3.6,1.2,4.73.8,1.13,1.79,1.69,2.99,1.69s2.22-.49,3-1.46c.77-.97,1.16-2.42,1.16-4.34,0-2.04-.41-3.61-1.22-4.74-.81-1.12-1.8-1.68-2.97-1.68Z"/>
    <path class="st1" d="M198.12,48.26l.29-1.26c.12-.57.35-.86.69-.86l.77.09,1.31.04,2.21-.13c.18,0,.28.09.31.26-.02.04-.03.08-.05.11-.03.03-.07.09-.15.2l-.35.42c-.27.07-.49.22-.68.43-.18.21-.27.53-.27.94,0,.27.13,1.39.4,3.39l.55,4.25.15,2.15c0,1.12.15,1.86.46,2.22.31.36.69.59,1.13.67.38.05.59.14.62.27-.06.1-.12.18-.18.23-.06.05-.12.14-.18.28-.06.13-.24.2-.53.2l-1.51-.07-1.22-.07-3.32.13c-.22,0-.33-.09-.33-.27.05-.12.08-.2.11-.24l.29-.38c.35-.07.66-.25.93-.54.27-.28.4-.69.4-1.2,0-.46-.13-1.9-.4-4.32-.27-2.42-.4-4.13-.4-5.14l-2.78,8.19c-.05.12-.11.4-.2.84-.09.3-.17.64-.23,1.03-.07.39-.26.68-.58.86-.31.19-.66.46-1.04.83-.38.37-.6.55-.67.55-.18,0-.4-.4-.66-1.19l-1.26-3.91-2.46-7.18-.58,5.11-.3,4.25c0,.56.16.99.47,1.28.31.3.67.44,1.08.44.31,0,.51.02.59.05.08.03.14.1.17.22-.03.05-.07.1-.11.18-.05.08-.13.18-.25.31-.13.13-.23.2-.3.22l-2.46-.13-2.35.13c-.16,0-.26-.07-.29-.2.01-.04.03-.09.04-.14.02-.05.07-.16.17-.32.1-.16.27-.29.53-.39.26-.1.49-.44.7-1.01.18-.56.47-2.56.86-6.02l.58-5.76c0-.4-.09-.68-.26-.83-.18-.16-.45-.26-.83-.32-.37-.06-.57-.14-.58-.24,0-.13.1-.29.31-.47.21-.19.37-.29.49-.32l.95.09,1.26.04,1.13-.07.82-.07c.19,0,.34.16.44.49l.31,1.15,3.14,9.48,3.1-8.99Z"/>
    <path class="st1" d="M219.07,48.26l.29-1.26c.12-.57.35-.86.69-.86l.77.09,1.31.04,2.21-.13c.18,0,.28.09.31.26-.01.04-.03.08-.06.11-.02.03-.07.09-.14.2l-.35.42c-.26.07-.49.22-.68.43-.19.21-.28.53-.28.94,0,.27.13,1.39.4,3.39l.55,4.25.16,2.15c0,1.12.15,1.86.46,2.22.31.36.69.59,1.13.67.38.05.59.14.62.27-.06.1-.12.18-.17.23-.06.05-.12.14-.18.28-.06.13-.24.2-.53.2l-1.51-.07-1.22-.07-3.32.13c-.22,0-.33-.09-.33-.27.05-.12.08-.2.11-.24l.29-.38c.35-.07.66-.25.93-.54.26-.28.4-.69.4-1.2,0-.46-.13-1.9-.4-4.32-.27-2.42-.4-4.13-.4-5.14l-2.78,8.19c-.04.12-.11.4-.2.84-.09.3-.17.64-.23,1.03-.07.39-.26.68-.58.86-.32.19-.66.46-1.04.83-.38.37-.6.55-.67.55-.18,0-.4-.4-.66-1.19l-1.26-3.91-2.46-7.18-.58,5.11-.3,4.25c0,.56.16.99.47,1.28.31.3.67.44,1.08.44.31,0,.5.02.59.05.08.03.14.1.17.22-.03.05-.06.1-.11.18-.05.08-.13.18-.26.31-.13.13-.22.2-.3.22l-2.46-.13-2.35.13c-.16,0-.26-.07-.29-.2.02-.04.03-.09.05-.14.02-.05.07-.16.17-.32.1-.16.27-.29.53-.39.26-.1.49-.44.7-1.01.18-.56.47-2.56.86-6.02l.58-5.76c0-.4-.09-.68-.27-.83-.18-.16-.46-.26-.83-.32-.38-.06-.57-.14-.59-.24,0-.13.11-.29.31-.47.21-.19.37-.29.49-.32l.95.09,1.26.04,1.13-.07.82-.07c.19,0,.34.16.44.49l.31,1.15,3.15,9.48,3.1-8.99Z"/>
    <path class="st1" d="M230.95,56.28c0,1.18.33,2.14,1.01,2.88.67.74,1.58,1.11,2.73,1.11,1.27,0,2.27-.38,3-1.15.73-.77,1.1-1.93,1.1-3.48v-5.27c0-1.23-.14-2.04-.41-2.45-.27-.4-.69-.65-1.23-.74-.55-.09-.83-.17-.84-.24,0-.1.1-.25.31-.44l.27-.29s.11-.07.2-.07l2.94.13h.95c.15-.03.25-.04.31-.04.19,0,.42-.03.69-.09.28,0,.42.1.42.29,0,.1-.07.23-.22.4-.14.16-.35.29-.62.39-.27.09-.51.36-.72.79-.21.44-.32,1.18-.32,2.25v5.67c0,1.98-.56,3.55-1.68,4.72-1.12,1.17-2.89,1.75-5.31,1.75-1.58,0-2.96-.44-4.13-1.33-1.17-.89-1.76-2.05-1.76-3.5v-7.75c0-.87-.11-1.52-.33-1.95-.22-.43-.57-.67-1.05-.72-.48-.05-.72-.15-.72-.3,0-.07.09-.21.27-.4.18-.19.34-.3.49-.31l1.13.09,1.15.04,3.81-.13c.29,0,.45.09.48.26-.01.03-.04.08-.07.13-.03.06-.1.16-.21.31-.11.15-.33.28-.64.4-.32.12-.56.34-.73.66-.17.32-.25.91-.25,1.75v6.62Z"/>
    <path class="st1" d="M246.78,57.54c0,1.45.13,2.43.38,2.92.25.49.76.74,1.53.74.47,0,.72.09.75.27-.03.05-.06.1-.11.18-.04.08-.12.18-.24.31-.12.13-.23.2-.35.22l-2.63-.13-1.22.07-1.15.07c-.18,0-.28-.07-.31-.2.01-.03.03-.08.06-.14.02-.07.1-.18.24-.36.14-.17.31-.26.5-.28.19-.01.38-.25.56-.7.18-.45.28-1.17.28-2.16v-8.15c0-1.18-.11-1.99-.33-2.42-.22-.44-.65-.65-1.28-.65-.22,0-.33-.07-.33-.22,0-.12.11-.27.32-.46.21-.19.44-.29.68-.29l.88.07.78.07,1.04-.02c.22,0,.54-.03.95-.11.15,0,.32.13.53.4l1.22,2.04,6.22,9.39.04-7.79c0-1.2-.16-2-.49-2.43-.32-.42-.89-.63-1.7-.63-.31,0-.46-.09-.46-.27.03-.04.07-.1.11-.18.05-.07.13-.17.26-.3.12-.12.26-.2.41-.23l.82.07,1.44.07,1.2-.02,1.22-.11c.22,0,.34.07.35.22-.01.04-.03.09-.04.14-.01.05-.07.16-.17.32-.1.16-.26.3-.48.42-.22.12-.4.44-.53.96-.13.53-.2,1.68-.2,3.47v4.69l.09,3.54c0,.34-.18.64-.53.89l-.71.46s-.13.13-.25.26c-.12.14-.28.3-.47.51-.18.21-.38.33-.61.35-.18,0-.5-.37-.97-1.11l-1.06-1.7-6.15-9.1-.04,7.06Z"/>
    <path class="st1" d="M265.38,59.38c0,.62.13,1.08.4,1.37.25.22.58.37,1,.44.35,0,.55.06.58.18,0,.12-.1.27-.29.47-.19.19-.34.3-.44.33l-1.06-.09-1.68-.04-2.99.13c-.28,0-.42-.07-.42-.2,0-.12.05-.26.16-.43.11-.17.27-.29.48-.36.19-.05.4-.23.62-.56.22-.33.33-.75.33-1.23v-10.45c0-.63-.13-1.08-.4-1.34-.27-.26-.59-.41-.96-.45-.38-.04-.58-.11-.61-.2,0-.11.1-.27.29-.46.19-.19.34-.3.44-.33l1.04.09,1.7.04,2.99-.13c.28,0,.42.07.42.2s-.06.29-.18.47c-.12.18-.27.29-.46.33-.19.04-.4.23-.62.56-.22.33-.33.74-.33,1.23v10.45Z"/>
    <path class="st1" d="M272.02,47.87c-.89,0-1.55.17-1.98.52-.44.35-.68.73-.73,1.14-.05.41-.1.67-.14.76-.05.1-.14.23-.29.39l-.31.29c-.06.03-.14.06-.22.09-.1,0-.15-.14-.15-.42l.06-.98.07-1.71-.07-1.14-.06-.81s.06-.09.09-.14c.03-.05.11-.14.25-.25.13-.11.25-.18.35-.22.16.2.44.39.83.58.39.19.89.29,1.49.29h7.15c.71,0,1.34-.09,1.9-.28l1.26-.59c.18,0,.28.09.31.27l-.09,1.01-.05.92.13,2.57c0,.1-.09.26-.27.48-.19.21-.33.32-.43.32-.09,0-.17-.07-.24-.2l-.13-1.06c0-.26-.06-.5-.17-.72-.11-.21-.32-.45-.62-.72-.3-.27-.88-.4-1.76-.4h-1.53v11.51c0,.55.12.99.36,1.32.24.33.67.49,1.3.49.4,0,.6.07.6.21,0,.11-.07.23-.22.36l-.26.27-.11.13-3.3-.13-3.26.13c-.16,0-.24-.06-.24-.18,0-.07.06-.22.19-.43.12-.21.28-.34.48-.37.19-.03.43-.23.72-.61.29-.38.43-.78.43-1.21v-11.51h-1.33Z"/>
    <path class="st1" d="M292.23,59.42c0,.62.12,1.07.37,1.35.24.28.6.42,1.05.42s.71.1.71.29c0,.1-.08.24-.24.42-.16.18-.32.27-.46.27l-1.48-.07-1.24-.07-3.43.13c-.21,0-.31-.08-.31-.25,0-.09.06-.21.17-.37.11-.16.33-.32.65-.47.33-.15.56-.42.7-.83.14-.41.21-1.47.21-3.18,0-.43-.07-.83-.22-1.2-.15-.37-.66-1.35-1.55-2.94-.89-1.59-1.52-2.72-1.91-3.36-.39-.65-.76-1.21-1.1-1.67-.34-.46-.76-.72-1.26-.78-.28,0-.42-.07-.42-.22,0-.12.1-.26.3-.44.2-.18.39-.28.57-.31l3.03.13,3.28-.13c.26,0,.39.11.39.33-.01.05-.03.08-.05.11-.02.03-.07.08-.14.17-.07.08-.12.14-.15.19-.04.04-.07.11-.1.18l-.78.29c-.28.09-.42.35-.42.78,0,.31.2.88.6,1.7l2.24,4.23,2.41-4.36c.34-.63.51-1.14.51-1.53s-.1-.64-.31-.83c-.21-.19-.58-.28-1.13-.28-.26,0-.4-.05-.4-.16,0-.12.1-.27.31-.48.21-.2.37-.31.49-.34l1.04.13h1.15l2.63-.13c.09,0,.18.02.28.08.1.05.15.11.17.19,0,.08-.06.2-.19.37-.12.17-.36.33-.7.47-.34.14-.66.4-.96.79-.3.38-.91,1.4-1.84,3.04l-1.93,3.43c-.34.63-.52,1.19-.52,1.66v3.27Z"/>
    <path class="st1" d="M161.93,68.69c.46,0,.78.02.96.05.18.03.31.06.41.07.09.02.25.05.48.11.14,0,.26-.02.36-.05.1-.03.18-.06.24-.07.06-.01.16-.05.29-.11.12,0,.18.09.18.28l-.06.65-.03.84c0,.28.01.54.04.81l.04.53c-.03.05-.05.1-.07.11l-.21.16c-.08.06-.15.1-.2.12-.09,0-.18-.21-.27-.63-.07-.4-.27-.77-.61-1.12-.34-.34-.92-.51-1.73-.51s-1.4.29-1.82.89c-.42.6-.63,1.54-.63,2.85,0,1.49.26,2.6.79,3.31.53.72,1.24,1.08,2.12,1.08.56,0,1.1-.17,1.62-.5l1.35-1.09c.14,0,.21.05.21.16,0,.07-.02.16-.06.27l-.07.28c0,.11-.01.2-.04.29-.03.09-.34.34-.95.77-.6.43-1.15.78-1.65,1.03-.5.26-1,.38-1.5.38-1.14,0-2.1-.47-2.88-1.42-.78-.95-1.17-2.25-1.17-3.88,0-1.43.48-2.73,1.44-3.9.96-1.17,2.1-1.76,3.4-1.76Z"/>
    <path class="st1" d="M170.24,79.65c-1.29,0-2.34-.47-3.17-1.41-.83-.94-1.24-2.14-1.24-3.6,0-1.64.58-3.04,1.73-4.2,1.15-1.16,2.43-1.75,3.82-1.75,1.27,0,2.32.47,3.16,1.42.84.94,1.26,2.14,1.26,3.59,0,1.65-.58,3.05-1.73,4.21-1.16,1.16-2.43,1.74-3.82,1.74ZM170.8,70.11c-.81,0-1.4.24-1.8.73-.39.49-.65.97-.78,1.43-.13.47-.19,1.04-.19,1.7,0,1.34.26,2.39.79,3.14.53.75,1.19,1.13,1.99,1.13s1.48-.32,2-.97c.52-.65.77-1.61.77-2.89,0-1.35-.27-2.4-.81-3.15-.54-.75-1.2-1.12-1.97-1.12Z"/>
    <path class="st1" d="M179.62,77.62c0,.29.15.49.45.59.3.1.86.15,1.67.15.7,0,1.28-.14,1.72-.4.44-.27.71-.59.8-.96.09-.37.21-.62.36-.74.15-.12.25-.19.32-.21.11,0,.16.09.16.27l-.26,1.55c-.04.29-.07.52-.09.7-.02.18-.03.35-.03.52,0,.13-.05.23-.14.3-.09.07-.21.11-.36.12l-4.11-.09-3.49.09c-.19,0-.28-.04-.28-.13,0-.08.04-.18.11-.29.07-.11.18-.19.32-.24.13-.03.27-.16.41-.38.15-.22.22-.49.22-.82v-6.95c0-.42-.09-.72-.26-.89-.18-.17-.39-.27-.64-.3-.25-.03-.39-.07-.4-.13,0-.08.06-.18.19-.31.13-.13.23-.2.29-.22l.69.06,1.13.03,2.11-.09c.19,0,.28.04.28.13s-.04.19-.11.31c-.07.12-.19.19-.34.23-.16.03-.33.17-.5.42-.15.23-.22.58-.22,1.03v6.66Z"/>
    <path class="st1" d="M189.02,77.62c0,.29.15.49.45.59.3.1.86.15,1.67.15.71,0,1.28-.14,1.72-.4.44-.27.71-.59.81-.96.09-.37.21-.62.36-.74.15-.12.25-.19.32-.21.11,0,.16.09.16.27l-.26,1.55c-.04.29-.07.52-.09.7-.02.18-.03.35-.03.52,0,.13-.05.23-.14.3-.09.07-.21.11-.36.12l-4.11-.09-3.49.09c-.19,0-.28-.04-.28-.13,0-.08.04-.18.11-.29.07-.11.18-.19.31-.24.13-.03.27-.16.41-.38.15-.22.22-.49.22-.82v-6.95c0-.42-.09-.72-.27-.89-.17-.17-.39-.27-.64-.3-.25-.03-.38-.07-.4-.13,0-.08.06-.18.19-.31.13-.13.23-.2.3-.22l.69.06,1.14.03,2.1-.09c.19,0,.28.04.28.13s-.04.19-.11.31c-.07.12-.19.19-.34.23-.16.03-.32.17-.5.42-.15.23-.22.58-.22,1.03v6.66Z"/>
    <path class="st1" d="M196.13,70.61c0-.43-.09-.73-.26-.9-.18-.17-.39-.28-.64-.31-.25-.03-.39-.07-.41-.13,0-.08.06-.18.19-.31.13-.13.23-.2.29-.22l1.99.19,5.74-.24c.09,0,.15.04.19.12l.09.87c.03.27.08.55.15.85l.1.68c0,.07-.05.17-.16.3-.11.13-.2.21-.27.22-.03-.03-.05-.06-.07-.1-.02-.04-.06-.14-.13-.3-.09-.28-.22-.51-.41-.71-.19-.2-.47-.35-.85-.46-.38-.11-.92-.16-1.61-.16h-1.72v2.59l1.66.09c.63,0,1.08-.06,1.34-.19l.66-.36c.09,0,.14.07.15.21l-.04.46-.04.49c0,.26.01.53.04.81l.04.41c0,.13-.03.23-.07.31l-.13.14-.13.16c-.05.06-.11.1-.19.12-.06,0-.1-.02-.13-.07l-.09-.52c-.03-.3-.15-.52-.37-.68-.22-.15-.61-.23-1.18-.23l-1.52.06v3.64c0,.34.17.58.52.72.36.14,1,.21,1.9.21.83,0,1.41-.14,1.73-.43.32-.29.52-.58.6-.88.09-.3.15-.47.2-.5l.16-.06c.07-.03.13-.06.16-.08.04-.03.11-.05.19-.07.09,0,.13.07.13.2l-.25,1.24c-.04.22-.07.42-.09.61-.02.18-.03.37-.03.56,0,.15-.04.28-.12.38-.08.11-.2.17-.35.18l-4.36-.09-3.39.09c-.19,0-.28-.04-.28-.13s.04-.18.11-.29c.07-.11.18-.19.32-.25.13-.03.27-.15.41-.38.15-.22.22-.5.22-.82v-7.02Z"/>
    <path class="st1" d="M211.36,75.63c0-.59-.22-.92-.66-1.01l-.77-.11c-.07,0-.1-.03-.1-.11,0-.05.06-.14.18-.26.13-.12.24-.19.34-.21l.82.09h.8l2.33-.09s.09.01.13.05c.04.03.06.07.07.11l-.13.21c-.06.07-.1.13-.13.18-.03.05-.05.1-.07.14-.16.03-.3.12-.42.27-.12.15-.18.38-.18.67v1.59c0,.2.01.35.03.43.02.08.04.14.06.19,0,.03-.02.06-.04.1-.01.03-.07.1-.15.19-.09.09-.17.14-.25.14-.35,0-.93.24-1.72.72-.79.48-1.55.72-2.27.72-1.36,0-2.48-.47-3.33-1.42-.85-.94-1.28-2.15-1.28-3.62,0-1.55.51-2.93,1.54-4.13,1.03-1.2,2.3-1.8,3.82-1.8.46,0,.82.03,1.06.09l.94.17c.19,0,.38-.03.58-.09l.47-.18c.09,0,.14.06.16.18l-.04.4c-.03.25-.04.51-.04.78l.09,1.52s-.02.04-.03.07c-.01.02-.04.05-.09.08-.05.03-.09.09-.12.18-.04.09-.09.14-.17.14-.07,0-.13-.07-.19-.2l-.16-.66c-.06-.3-.33-.57-.8-.84-.48-.26-1.14-.4-1.98-.4s-1.51.31-2.03.94c-.52.63-.78,1.58-.78,2.86,0,1.41.28,2.49.84,3.23.56.74,1.33,1.1,2.31,1.1.39,0,.72-.09.99-.27.27-.18.4-.48.4-.9v-1.27Z"/>
    <path class="st1" d="M216.15,70.61c0-.43-.09-.73-.27-.9-.18-.17-.39-.28-.64-.31-.25-.03-.39-.07-.41-.13,0-.08.06-.18.19-.31.13-.13.23-.2.29-.22l1.99.19,5.74-.24c.09,0,.15.04.19.12l.09.87c.03.27.08.55.15.85l.1.68c0,.07-.06.17-.16.3-.11.13-.2.21-.27.22-.03-.03-.05-.06-.07-.1-.02-.04-.06-.14-.13-.3-.09-.28-.23-.51-.41-.71-.19-.2-.47-.35-.85-.46-.38-.11-.92-.16-1.61-.16h-1.72v2.59l1.66.09c.63,0,1.08-.06,1.34-.19l.66-.36c.09,0,.13.07.15.21l-.04.46-.05.49c0,.26.01.53.05.81l.04.41c0,.13-.03.23-.08.31l-.13.14-.13.16c-.05.06-.11.1-.19.12-.06,0-.1-.02-.13-.07l-.09-.52c-.03-.3-.15-.52-.37-.68-.22-.15-.61-.23-1.18-.23l-1.52.06v3.64c0,.34.17.58.51.72.36.14,1,.21,1.9.21.83,0,1.41-.14,1.73-.43.32-.29.52-.58.61-.88.08-.3.15-.47.2-.5l.16-.06c.07-.03.12-.06.16-.08.04-.03.1-.05.19-.07.09,0,.13.07.13.2l-.25,1.24c-.04.22-.07.42-.09.61-.02.18-.03.37-.03.56,0,.15-.04.28-.12.38-.08.11-.2.17-.35.18l-4.36-.09-3.39.09c-.19,0-.28-.04-.28-.13s.04-.18.11-.29c.07-.11.18-.19.32-.25.13-.03.27-.15.41-.38.15-.22.22-.5.22-.82v-7.02Z"/>
    <path class="st1" d="M229.33,70.95c0-.49-.07-.85-.21-1.09-.15-.23-.31-.36-.51-.39l-.43-.05c-.1-.02-.15-.07-.15-.15,0-.06.07-.15.21-.28l.27-.19.41.05c.23.03.65.04,1.27.04l1.22-.03.96-.06,1.39-.07c1.35,0,2.42.41,3.21,1.22.79.81,1.18,2.01,1.18,3.59,0,1.8-.53,3.26-1.59,4.37-1.05,1.12-2.37,1.67-3.95,1.67-.25,0-.67-.03-1.23-.09-.57-.06-1.04-.09-1.41-.09h-.88c-.15,0-.35.03-.59.09-.15,0-.22-.05-.22-.15,0-.08.04-.17.11-.29.07-.11.19-.19.35-.23.16-.04.31-.19.43-.46.12-.27.19-.76.19-1.47v-5.95ZM231.54,76.88c0,.69.11,1.09.32,1.21.12.05.21.08.27.1.07.02.19.05.38.1l.74.06c1.79,0,2.68-1.5,2.68-4.49,0-1.34-.26-2.32-.77-2.94-.52-.63-1.24-.93-2.17-.93-.23,0-.43.01-.62.03-.19.03-.33.04-.44.05-.11,0-.23.04-.38.07v6.73Z"/>
    <path class="st1" d="M242.41,77.65c0,.41.09.72.27.91.17.15.39.25.66.3.23,0,.36.04.38.12,0,.08-.06.18-.19.31-.13.13-.23.2-.29.22l-.71-.06-1.12-.03-1.99.09c-.19,0-.28-.04-.28-.13,0-.08.04-.18.11-.29.07-.11.18-.19.32-.24.13-.03.27-.16.41-.38.15-.22.22-.49.22-.82v-6.95c0-.42-.09-.72-.27-.89-.18-.17-.39-.27-.64-.3-.25-.03-.39-.07-.41-.13,0-.08.06-.18.19-.31.13-.13.23-.2.3-.22l.69.06,1.13.03,1.99-.09c.19,0,.28.04.28.13s-.04.19-.12.31c-.08.12-.18.19-.31.22-.13.03-.27.15-.41.38-.15.22-.22.49-.22.82v6.95Z"/>
    <path class="st1" d="M248.77,68.69c.37,0,.64.01.79.03.16.02.39.06.69.12l.9.07c.11,0,.23-.03.38-.07l.54-.15c.1,0,.15.05.16.15l-.13.68c-.03.24-.04.46-.04.66l.04.77.04.69s-.02.07-.05.13c-.03.05-.09.13-.18.23-.09.1-.17.16-.23.18-.08,0-.14-.1-.19-.31-.03-.2-.09-.45-.18-.74-.09-.29-.34-.56-.74-.81-.41-.25-.98-.37-1.7-.37-.56,0-.99.12-1.28.36-.29.24-.44.57-.44.98,0,.65.69,1.21,2.08,1.66,1.38.45,2.33.8,2.83,1.07.5.26.75.95.75,2.08s-.48,1.93-1.44,2.59c-.97.65-2.01.98-3.14.98-.28,0-.48,0-.61-.02-.13-.02-.35-.05-.64-.1l-.88-.12c-.21,0-.37.02-.48.05-.11.04-.2.06-.25.08-.05.01-.15.05-.29.11-.08,0-.12-.06-.13-.19v-.65l.06-.65c0-.14,0-.29-.02-.45,0-.16-.03-.32-.06-.48-.03-.36-.06-.62-.1-.78,0-.11.06-.25.18-.42.13-.15.23-.23.29-.23.05,0,.09.04.13.12.04.08.09.32.15.72.06.4.37.8.93,1.18.56.39,1.26.58,2.09.58.59,0,1.07-.17,1.45-.51.37-.33.56-.79.56-1.38,0-.61-.47-1.07-1.41-1.39l-2.77-.87c-.98-.51-1.47-1.3-1.47-2.37,0-.87.41-1.63,1.22-2.26.81-.64,1.69-.95,2.61-.95Z"/>
    <path class="st1" d="M256.04,69.99c-.59,0-1.03.12-1.32.34-.29.23-.45.49-.48.76-.04.27-.07.44-.1.51-.03.07-.09.15-.19.26l-.21.19s-.09.04-.15.06c-.07,0-.1-.1-.1-.28l.04-.65.05-1.13-.05-.76-.04-.54s.04-.06.06-.1c.02-.03.07-.09.16-.16.09-.08.16-.12.23-.14.11.13.29.26.55.39.26.13.59.19,1,.19h4.76c.47,0,.89-.06,1.27-.18l.84-.4c.12,0,.19.06.21.18l-.06.67-.03.61.09,1.71c0,.07-.06.17-.18.32-.12.14-.22.21-.29.21-.06,0-.11-.04-.16-.13l-.09-.71c0-.18-.04-.34-.11-.48-.07-.14-.21-.3-.41-.48-.2-.18-.59-.26-1.17-.26h-1.02v7.66c0,.36.08.66.24.88.16.22.45.33.86.33.27,0,.4.05.4.14,0,.07-.05.15-.15.24l-.17.18-.07.09-2.19-.09-2.17.09c-.11,0-.16-.04-.16-.12,0-.05.04-.14.13-.29.08-.14.19-.22.31-.24.13-.02.29-.16.48-.41.19-.25.29-.51.29-.8v-7.66h-.89Z"/>
    <path class="st1" d="M266.85,77.47c0,.46.07.79.2.98.13.19.33.32.6.38.27.04.43.08.49.13.06.03.1.07.1.12-.02.02-.04.05-.07.09-.03.05-.07.09-.13.15-.05.05-.1.09-.14.12-.04.02-.07.04-.1.06l-2.03-.09-2,.18c-.12,0-.18-.05-.18-.15.03-.07.06-.12.09-.16.03-.04.07-.1.1-.16.03-.07.13-.14.32-.2.18-.07.32-.22.41-.47.09-.24.14-.63.14-1.15v-6.28c0-.47-.07-.83-.21-1.07-.14-.24-.31-.38-.51-.41l-.43-.05c-.09,0-.14-.06-.14-.15,0-.03.02-.05.03-.07.02-.02.07-.08.17-.16.1-.09.16-.15.18-.18l.16-.19.82.19h.78l3.8-.19c.84,0,1.53.21,2.05.63.52.42.78.98.78,1.68s-.27,1.26-.82,1.78c-.54.52-1.16.82-1.83.91.56,0,1.05.38,1.47,1.14l.93,2.12c.33.72.7,1.08,1.12,1.08.14,0,.29-.04.44-.12l.53-.26c.11,0,.16.05.16.16,0,.08-.04.2-.12.37-.06.18-.13.28-.2.3-.07.02-.37.22-.9.59-.53.37-.88.55-1.07.55-.46,0-.86-.18-1.2-.54-.34-.36-.73-1.14-1.18-2.36-.44-1.21-.82-1.95-1.12-2.21-.3-.27-.8-.4-1.5-.4v3.33ZM266.85,72.66c0,.12.08.23.24.32.19.07.49.11.91.11.64,0,1.12-.15,1.44-.44.32-.29.48-.74.48-1.34,0-.4-.15-.72-.44-.96-.29-.23-.73-.35-1.33-.35h-.2c-.05,0-.21.02-.46.06l-.63.06v2.55Z"/>
    <path class="st1" d="M277.58,77.65c0,.41.09.72.26.91.17.15.39.25.66.3.24,0,.36.04.38.12,0,.08-.06.18-.19.31-.13.13-.22.2-.29.22l-.71-.06-1.12-.03-1.99.09c-.19,0-.28-.04-.28-.13,0-.08.04-.18.11-.29.07-.11.18-.19.32-.24.12-.03.26-.16.41-.38.15-.22.22-.49.22-.82v-6.95c0-.42-.09-.72-.26-.89-.17-.17-.39-.27-.64-.3-.25-.03-.38-.07-.4-.13,0-.08.06-.18.19-.31.13-.13.23-.2.29-.22l.69.06,1.13.03,1.99-.09c.19,0,.28.04.28.13s-.04.19-.12.31c-.08.12-.18.19-.31.22-.13.03-.27.15-.42.38-.14.22-.22.49-.22.82v6.95Z"/>
    <path class="st1" d="M284.35,68.69c.46,0,.78.02.96.05.18.03.31.06.41.07.09.02.25.05.48.11.14,0,.26-.02.35-.05.1-.03.18-.06.24-.07.06-.01.16-.05.29-.11.12,0,.18.09.18.28l-.06.65-.03.84c0,.28.01.54.05.81l.04.53c-.03.05-.05.1-.07.11l-.21.16c-.08.06-.15.1-.21.12-.09,0-.18-.21-.27-.63-.07-.4-.27-.77-.61-1.12-.34-.34-.92-.51-1.73-.51s-1.4.29-1.82.89c-.42.6-.63,1.54-.63,2.85,0,1.49.26,2.6.79,3.31.53.72,1.24,1.08,2.12,1.08.56,0,1.1-.17,1.62-.5l1.35-1.09c.14,0,.21.05.21.16,0,.07-.02.16-.06.27l-.08.28c0,.11-.01.2-.04.29-.03.09-.34.34-.94.77-.6.43-1.16.78-1.65,1.03-.5.26-.99.38-1.5.38-1.14,0-2.1-.47-2.88-1.42-.78-.95-1.17-2.25-1.17-3.88,0-1.43.48-2.73,1.44-3.9.96-1.17,2.1-1.76,3.4-1.76Z"/>
    <path class="st1" d="M290.7,69.99c-.58,0-1.03.12-1.32.34-.29.23-.45.49-.48.76-.04.27-.07.44-.1.51-.03.07-.09.15-.19.26l-.21.19s-.09.04-.15.06c-.07,0-.1-.1-.1-.28l.05-.65.05-1.13-.05-.76-.05-.54s.04-.06.06-.1c.02-.03.07-.09.16-.16.09-.08.17-.12.23-.14.11.13.29.26.55.39.26.13.59.19.99.19h4.76c.47,0,.89-.06,1.27-.18l.84-.4c.12,0,.19.06.21.18l-.06.67-.03.61.09,1.71c0,.07-.06.17-.19.32-.12.14-.22.21-.28.21-.06,0-.11-.04-.16-.13l-.09-.71c0-.18-.04-.34-.11-.48-.07-.14-.21-.3-.42-.48-.2-.18-.59-.26-1.17-.26h-1.02v7.66c0,.36.08.66.24.88.16.22.45.33.86.33.26,0,.4.05.4.14,0,.07-.05.15-.15.24l-.18.18-.07.09-2.2-.09-2.16.09c-.11,0-.16-.04-.16-.12,0-.05.04-.14.12-.29.09-.14.19-.22.32-.24.13-.02.29-.16.48-.41.19-.25.29-.51.29-.8v-7.66h-.89Z"/>
  </g>
  <g>
    <path class="st1" d="M107.62,70.75c2.92-4.13,4.63-9.18,4.63-14.63,0-13.95-11.31-25.26-25.26-25.26-5.79,0-11.11,1.95-15.37,5.23l1.88,1.97c3.76-2.81,8.43-4.48,13.49-4.48,12.45,0,22.54,10.09,22.54,22.54,0,4.67-1.45,9.02-3.88,12.63.63.69,1.28,1.36,1.96,2Z"/>
    <path class="st1" d="M100.41,74.23c-3.75,2.77-8.4,4.44-13.41,4.44-12.45,0-22.54-10.09-22.54-22.54,0-4.82,1.42-9.15,3.98-12.79-.51-.75-1.23-1.4-1.83-2.09-3.1,4.18-4.86,9.26-4.86,14.88,0,13.95,11.31,25.26,25.25,25.26,5.76,0,11.13-1.99,15.38-5.24l-1.96-1.91Z"/>
    <path class="st1" d="M121.96,30.87c-5.8,0-11.11,1.98-15.37,5.27l2,2.1c3.73-2.79,8.35-4.45,13.37-4.45,12.34,0,22.34,10,22.34,22.34s-10,22.34-22.34,22.34-22.34-10-22.34-22.34c0-4.71,1.47-9.07,3.96-12.67-.63-.78-1.32-1.47-2.08-2.06-2.99,4.15-4.8,9.23-4.8,14.73,0,13.95,11.31,25.26,25.26,25.26s25.26-11.31,25.26-25.26-11.31-25.26-25.26-25.26Z"/>
    <path class="st1" d="M52.17,30.87c-13.95,0-25.26,11.31-25.26,25.26s11.31,25.26,25.26,25.26c5.22,0,10.1-1.54,14.12-4.24l.81-.65-1.9-2.03-.79.6c-3.53,2.28-7.73,3.6-12.24,3.6-12.45,0-22.54-10.09-22.54-22.54s10.09-22.54,22.54-22.54,22.54,10.09,22.54,22.54c0,4.8-1.39,9.54-3.96,12.93.57.68,1.31,1.48,1.9,1.99,3.13-4.56,4.78-9.38,4.78-14.92,0-13.95-11.31-25.26-25.26-25.26Z"/>
    <path class="st0" d="M99.25,39.59c-1.23,1.86-5.39,7.52-5.39,16.54,0,15.52,12.58,28.1,28.1,28.1s28.1-12.58,28.1-28.1-12.58-28.1-28.1-28.1c-6.52,0-12.52,2.23-17.28,5.95"/>
    <path class="st0" d="M74.75,72.87c3.2-4.47,5.53-10.04,5.53-16.74,0-15.52-12.58-28.1-28.1-28.1s-28.1,12.58-28.1,28.1,12.58,28.1,28.1,28.1c6.57,0,12.61-2.26,17.39-6.03"/>
    <g>
      <path class="st0" d="M104.49,78.2c-4.79,3.78-10.83,6.03-17.4,6.03-15.52,0-28.1-12.58-28.1-28.1,0-6.81,2.91-13.26,5.39-16.54"/>
      <path class="st0" d="M109.81,72.68c3.15-4.78,5.38-9.94,5.38-16.55,0-15.52-12.58-28.1-28.1-28.1-6.52,0-12.52,2.23-17.29,5.96"/>
    </g>
  </g>
</svg>